<svg width="799" height="469" viewBox="0 0 799 469" fill="none" xmlns="http://www.w3.org/2000/svg">
<g clip-path="url(#clip0_85_38)">
<path d="M263.127 469C239.017 469 214.944 468.495 190.907 467.484C156.561 466.039 121.045 464.547 88.035 443.108C64.9427 428.113 44.491 404.054 28.8913 373.531C18.4647 352.843 10.8195 330.399 6.2242 306.987C-2.34785 264.363 -2.05588 219.952 7.07557 177.487C10.2756 162.928 14.687 148.771 20.2466 135.219C44.3197 76.8474 88.2274 37.6639 140.712 27.7166C141.145 27.6508 141.583 27.6398 142.019 27.684C142.255 27.6988 142.49 27.7146 142.73 27.7029L143.039 27.5879C143.83 27.2658 144.644 27.0214 145.47 26.8574C226.414 12.7473 311.985 41.297 392.923 109.418C455.505 162.096 538.443 190.462 646.478 196.138L648.012 196.232C678.086 198.255 707.177 212.773 732.143 238.22C756.785 263.335 775.287 296.843 785.648 335.124C786.922 339.791 788.09 344.65 789.119 349.563C790.077 354.129 790.009 358.908 788.922 363.435C787.836 367.961 785.767 372.082 782.917 375.394V375.404L782.648 375.727C782.001 376.482 781.319 377.205 780.622 377.878L779.803 378.669C772.899 385.328 767.446 390.589 760.92 394.675C756.567 397.381 751.937 399.428 747.143 400.765C720.816 408.281 694.081 415.249 667.68 421.477C616.407 433.582 563.784 443.568 511.271 451.156C428.946 463.042 346.075 469.002 263.127 469ZM141.405 29.7514C141.244 29.7496 141.083 29.7624 140.923 29.7897C88.9296 39.6439 45.4375 78.4428 21.603 136.237C16.0983 149.654 11.7306 163.671 8.56236 178.086C-0.485879 220.174 -0.774221 264.19 7.72158 306.436C12.2719 329.624 19.843 351.853 30.1689 372.344C45.6159 402.567 65.8585 426.385 88.7086 441.222C121.423 462.468 156.771 463.955 190.956 465.392C297.873 469.865 404.925 464.409 511.106 449.076C563.584 441.492 616.174 431.513 667.412 419.415C693.796 413.192 720.512 406.229 746.821 398.718C751.5 397.414 756.018 395.418 760.266 392.777C766.661 388.774 772.062 383.563 778.9 376.967L779.719 376.177C780.318 375.598 780.906 374.979 781.469 374.335L781.63 374.137C787.249 367.505 789.435 358.755 787.625 350.132V350.131C786.607 345.27 785.452 340.464 784.191 335.845C763.024 257.644 708.268 202.38 647.937 198.322L646.412 198.228C597.063 195.635 553.879 188.453 514.398 176.268C467.267 161.723 426.12 139.828 392.101 111.193C311.471 43.3327 226.259 14.8892 145.668 28.9324C144.915 29.0845 144.174 29.3094 143.453 29.6047L142.896 29.7871C142.58 29.8037 142.263 29.7992 141.948 29.7738C141.762 29.7626 141.581 29.7514 141.405 29.7514Z" fill="#F0F0F0"/>
<path d="M249.575 152.806C247.343 150.298 245.06 136.316 242.211 134.896C244.341 140.408 242.794 141.868 242.783 147.917C242.81 151.352 242.467 154.777 241.763 158.112H193.493V114.002C193.493 110.038 194.16 106.114 195.455 102.452C196.75 98.7903 198.649 95.4631 201.042 92.6605C203.436 89.858 206.277 87.6349 209.404 86.1182C212.532 84.6015 215.883 83.8209 219.268 83.821C220.56 83.8506 221.844 84.0706 223.089 84.476C227.237 85.7876 231.019 88.3537 234.054 91.9168C237.088 95.4799 239.269 99.9148 240.378 104.777C244.058 120.526 249.91 146.742 249.575 152.806Z" fill="#2F2E41"/>
<path d="M196.326 207.07L196.349 172.688L179.089 174.495L185.181 196.179L182.33 250.683C180.947 251.046 179.685 251.873 178.696 253.062C177.708 254.251 177.036 255.751 176.763 257.379C176.49 259.007 176.628 260.693 177.159 262.232C177.69 263.77 178.592 265.094 179.755 266.042C180.918 266.991 182.291 267.522 183.708 267.573C185.124 267.623 186.522 267.189 187.732 266.325C188.942 265.461 189.911 264.203 190.52 262.705C191.13 261.208 191.355 259.534 191.166 257.89L196.326 207.07Z" fill="#E9C9C9"/>
<path d="M230.293 452.76L237.265 452.759L240.583 421.266H230.291L230.293 452.76Z" fill="#E9C9C9"/>
<path d="M227.931 448.732L238.954 447.962V453.492L249.434 461.967C249.952 462.385 250.341 462.987 250.547 463.683C250.752 464.379 250.761 465.134 250.574 465.837C250.387 466.541 250.013 467.155 249.506 467.592C248.999 468.028 248.387 468.264 247.758 468.264H234.634L232.372 462.794L231.489 468.264H226.541L227.931 448.732Z" fill="#2F2E41"/>
<path d="M189.973 452.76L196.947 452.759L200.264 421.266H189.972L189.973 452.76Z" fill="#E9C9C9"/>
<path d="M187.612 448.732L198.635 447.962V453.492L209.115 461.967C209.633 462.385 210.022 462.987 210.228 463.683C210.433 464.379 210.442 465.134 210.255 465.837C210.068 466.541 209.694 467.155 209.187 467.592C208.68 468.028 208.068 468.264 207.439 468.264H194.315L192.053 462.794L191.17 468.264H186.222L187.612 448.732Z" fill="#2F2E41"/>
<path d="M224.083 135.56L209.638 135.891L199.441 148.494L191.266 149.898C187.568 150.533 184.169 152.635 181.635 155.853C179.102 159.071 177.589 163.209 177.348 167.576L178.765 176.685H187.262L192.177 210.481C190.266 216.184 190.136 220.685 194.06 222.454L206.239 249.318L242.211 230.414C244.035 226.741 244.619 223.053 242.755 219.466L245.326 167.73H253.973C253.973 158.054 251.178 149.897 242.965 148.82C239.704 148.407 236.427 148.187 233.147 148.163L224.083 135.56Z" fill="#E6E6E6"/>
<path d="M242.211 230.414C242.211 230.414 207.089 237.71 194.06 222.454C194.06 222.454 192.737 225.083 190.744 229.444C190.17 230.698 189.063 231.548 188.395 233.067C187.787 234.447 186.224 236.145 185.562 237.711C185.03 238.97 185.884 240.616 185.33 241.977C178.658 258.365 170.862 281.481 172.533 296.745C173.611 306.589 175.837 329.493 178.181 354.095C178.365 356.017 176.881 358.486 177.065 360.423C177.239 362.25 179.08 363.545 179.254 365.376C179.369 366.592 178.083 367.832 178.198 369.046C178.324 370.379 179.851 371.685 179.977 373.012C183.188 406.981 186.129 438.694 186.129 438.694H202.557L205.656 366.263L203.123 339.86L209.071 286.464L217.285 337.207L218.342 365.766L227.023 440.021H242.211V368.138L243.343 364.403L242.211 359.614L243.343 354.453L242.211 348.834V230.414Z" fill="#2F2E41"/>
<path d="M228.517 125.751C226.279 129.231 223.096 131.716 219.491 132.795C215.887 133.874 212.076 133.484 208.686 131.688C205.296 129.892 202.53 126.798 200.842 122.916C199.155 119.033 198.647 114.593 199.402 110.327C200.158 106.061 202.131 102.224 204.998 99.447C207.864 96.6699 211.453 95.1188 215.173 95.0491C218.893 94.9794 222.523 96.3952 225.464 99.0635C228.405 101.732 230.482 105.493 231.354 109.729C231.401 109.958 231.441 110.187 231.479 110.424C231.94 113.079 231.913 115.818 231.403 118.46C230.892 121.102 229.909 123.587 228.517 125.751Z" fill="#E9C9C9"/>
<path d="M225.103 114.811C224.755 112.77 223.877 110.904 222.588 109.471C222.715 111.428 222.483 113.393 221.908 115.236C217.601 115.682 213.276 114.679 209.44 112.344C206.551 110.049 202.874 110.247 198.591 112.344C198.591 109.904 199.001 107.489 199.798 105.236C200.595 102.982 201.764 100.935 203.237 99.2099C204.71 97.4852 206.458 96.1172 208.383 95.1839C210.307 94.2507 212.37 93.7704 214.453 93.7708H217.285C221.492 93.7717 225.526 95.7287 228.5 99.2116C231.475 102.694 233.146 107.418 233.147 112.344C230.533 113.441 227.841 114.267 225.103 114.811Z" fill="#2F2E41"/>
<path d="M101.187 351.528C126.353 351.528 146.754 327.64 146.754 298.171C146.754 268.703 126.353 244.814 101.187 244.814C76.0201 244.814 55.6187 268.703 55.6187 298.171C55.6187 327.64 76.0201 351.528 101.187 351.528Z" fill="#393C8C"/>
<path d="M391.57 106.714C416.736 106.714 437.138 82.8253 437.138 53.357C437.138 23.8888 416.736 0 391.57 0C366.403 0 346.002 23.8888 346.002 53.357C346.002 82.8253 366.403 106.714 391.57 106.714Z" fill="#393C8C"/>
<path d="M753.432 359.898C778.599 359.898 799 336.01 799 306.541C799 277.073 778.599 253.184 753.432 253.184C728.266 253.184 707.864 277.073 707.864 306.541C707.864 336.01 728.266 359.898 753.432 359.898Z" fill="#393C8C"/>
<path d="M473.771 59.1759V180.167C473.771 182.68 472.924 185.092 471.415 186.878C469.905 188.664 467.854 189.681 465.708 189.707C465.679 189.711 465.649 189.712 465.619 189.712H453.593C443.97 189.712 434.742 185.236 427.938 177.269C421.134 169.302 417.312 158.496 417.312 147.229V59.1759C417.312 56.6444 418.17 54.2166 419.699 52.4265C421.228 50.6365 423.301 49.6309 425.463 49.6309H430.336C428.079 57.3421 458.718 60.5887 460.4 49.6309H465.619C467.781 49.6309 469.854 50.6365 471.383 52.4266C472.912 54.2166 473.771 56.6444 473.771 59.1759Z" fill="#C98D26"/>
<path d="M438.082 40.5834C438.083 40.2518 438.195 39.9338 438.396 39.6993C438.596 39.4648 438.867 39.3329 439.151 39.3325H446.415C446.698 39.3335 446.969 39.4657 447.168 39.7002C447.368 39.9347 447.48 40.2523 447.48 40.5834C447.48 40.9146 447.368 41.2322 447.168 41.4667C446.969 41.7012 446.698 41.8334 446.415 41.8343H439.151C438.867 41.8339 438.596 41.702 438.396 41.4675C438.195 41.233 438.083 40.9151 438.082 40.5834Z" fill="#3F3D56"/>
<path d="M468.115 205.058H422.175C418.611 205.054 415.194 203.394 412.674 200.443C410.153 197.492 408.736 193.49 408.732 189.317V104.74C408.479 104.527 408.274 104.248 408.132 103.924C407.991 103.601 407.917 103.242 407.918 102.879V94.3724C407.917 94.0088 407.991 93.6504 408.132 93.3268C408.274 93.0032 408.479 92.7239 408.732 92.5119V90.2289C408.479 90.0169 408.274 89.7375 408.132 89.4139C407.991 89.0904 407.917 88.732 407.918 88.3684V79.8618C407.917 79.4982 407.991 79.1397 408.132 78.8162C408.274 78.4926 408.479 78.2132 408.732 78.0012V73.8751C408.42 73.6793 408.16 73.3879 407.979 73.0323C407.798 72.6767 407.703 72.2702 407.704 71.8562V63.3501C407.703 62.9361 407.798 62.5295 407.979 62.1738C408.16 61.8181 408.42 61.5267 408.732 61.3307V50.0246C408.736 45.8512 410.153 41.8501 412.674 38.8991C415.194 35.9481 418.611 34.2881 422.175 34.2834H468.115C471.679 34.2881 475.096 35.9481 477.616 38.8991C480.137 41.8502 481.554 45.8513 481.558 50.0247V74.6695C481.8 74.8468 482 75.0933 482.138 75.3858C482.277 75.6782 482.349 76.0071 482.35 76.3415V92.5609C482.349 92.8954 482.277 93.2243 482.138 93.5168C482 93.8094 481.8 94.056 481.558 94.2334V189.317C481.554 193.49 480.137 197.491 477.616 200.443C475.096 203.394 471.679 205.054 468.115 205.058ZM422.175 36.3759C419.085 36.3799 416.122 37.8192 413.937 40.378C411.751 42.9367 410.522 46.406 410.519 50.0247V63.1106L409.659 63.1494C409.614 63.1513 409.572 63.1731 409.541 63.2105C409.509 63.2478 409.491 63.2978 409.491 63.3502V71.8562C409.492 71.9085 409.51 71.9584 409.541 71.9957C409.572 72.033 409.614 72.055 409.659 72.057L410.519 72.0953V79.4704L409.839 79.6665C409.801 79.6772 409.768 79.7021 409.743 79.7374C409.719 79.7727 409.705 79.8164 409.704 79.8617V88.3684C409.705 88.4137 409.719 88.4574 409.743 88.4927C409.768 88.528 409.801 88.5529 409.839 88.5635L410.519 88.7597V93.981L409.839 94.1772C409.801 94.1878 409.768 94.2127 409.743 94.248C409.719 94.2833 409.705 94.327 409.704 94.3723V102.878C409.705 102.924 409.719 102.968 409.743 103.003C409.768 103.038 409.801 103.063 409.839 103.074L410.519 103.27V189.317C410.522 192.936 411.751 196.405 413.937 198.964C416.122 201.522 419.085 202.962 422.175 202.966H468.115C471.205 202.962 474.168 201.522 476.353 198.964C478.538 196.405 479.768 192.936 479.771 189.317V92.4419H480.563V76.461H479.771V50.0246C479.768 46.406 478.538 42.9368 476.353 40.3781C474.168 37.8193 471.205 36.38 468.115 36.3758L422.175 36.3759Z" fill="#3F3D56"/>
<path d="M450.474 41.8343C451.064 41.8343 451.543 41.2743 451.543 40.5834C451.543 39.8926 451.064 39.3325 450.474 39.3325C449.884 39.3325 449.406 39.8926 449.406 40.5834C449.406 41.2743 449.884 41.8343 450.474 41.8343Z" fill="#3F3D56"/>
<path d="M218.082 282.9H98.5454C96.8478 282.895 95.221 282.103 94.0206 280.698C92.8202 279.292 92.1437 277.387 92.1392 275.4V207.198C92.1435 205.21 92.8197 203.305 94.02 201.9C95.2203 200.494 96.847 199.702 98.5445 199.697H218.082C219.779 199.702 221.406 200.493 222.606 201.899C223.807 203.304 224.483 205.209 224.488 207.197V275.399C224.483 277.386 223.807 279.291 222.607 280.697C221.407 282.102 219.78 282.894 218.082 282.9Z" fill="white"/>
<path d="M218.082 282.9H98.5454C96.8478 282.895 95.221 282.103 94.0206 280.698C92.8202 279.292 92.1437 277.387 92.1392 275.4V207.198C92.1435 205.21 92.8197 203.305 94.02 201.9C95.2203 200.494 96.847 199.702 98.5445 199.697H218.082C219.779 199.702 221.406 200.493 222.606 201.899C223.807 203.304 224.483 205.209 224.488 207.197V275.399C224.483 277.386 223.807 279.291 222.607 280.697C221.407 282.102 219.78 282.894 218.082 282.9ZM98.5454 201.789C97.3213 201.793 96.1483 202.365 95.2828 203.378C94.4172 204.392 93.9295 205.765 93.9261 207.199V275.399C93.9297 276.832 94.4176 278.205 95.2833 279.219C96.149 280.232 97.3221 280.804 98.5463 280.807H218.081C219.305 280.803 220.478 280.232 221.344 279.219C222.21 278.205 222.697 276.831 222.701 275.398V207.198C222.697 205.764 222.209 204.391 221.344 203.378C220.478 202.364 219.305 201.793 218.081 201.789L98.5454 201.789Z" fill="#3F3D56"/>
<path d="M164.72 272.821C141.145 272.821 116.563 272.557 107.391 272.386C106.184 272.357 105.035 271.776 104.188 270.769C103.342 269.761 102.866 268.406 102.861 266.992V210.537C102.861 210.031 103.033 209.545 103.338 209.187C103.644 208.829 104.058 208.627 104.49 208.625H212.133C212.565 208.625 212.98 208.826 213.286 209.184C213.592 209.541 213.764 210.026 213.766 210.532V248.836C213.746 255.088 211.634 261.083 207.882 265.533C204.131 269.983 199.04 272.534 193.701 272.639C185.153 272.77 175.03 272.821 164.72 272.821Z" fill="#C98D26"/>
<path d="M205.744 245.317H108.479C107.665 245.314 106.871 245.018 106.205 244.468C105.54 243.919 105.035 243.143 104.759 242.245L93.7499 206.082C93.5377 205.384 93.4716 204.637 93.5571 203.904C93.6426 203.17 93.8771 202.471 94.2411 201.866C94.605 201.26 95.0878 200.766 95.6487 200.424C96.2097 200.082 96.8324 199.903 97.4648 199.902L219.044 199.704C219.621 199.703 220.193 199.851 220.716 200.136C221.24 200.422 221.704 200.839 222.076 201.357C222.447 201.876 222.717 202.484 222.866 203.137C223.015 203.791 223.04 204.475 222.939 205.142L223.032 205.188L222.683 206.142L222.68 206.152L209.371 242.513C209.068 243.346 208.563 244.055 207.918 244.554C207.273 245.052 206.517 245.317 205.744 245.317ZM219.049 201.796L97.4682 201.994C97.1218 201.995 96.7807 202.093 96.4733 202.28C96.166 202.467 95.9016 202.738 95.7022 203.07C95.5028 203.401 95.3743 203.784 95.3274 204.186C95.2806 204.588 95.3168 204.997 95.433 205.379L106.441 241.541C106.593 242.033 106.87 242.458 107.234 242.759C107.599 243.06 108.034 243.223 108.481 243.224H205.744C206.167 243.225 206.58 243.079 206.933 242.806C207.286 242.534 207.563 242.145 207.729 241.69L221.038 205.327C221.179 204.942 221.236 204.521 221.204 204.104C221.172 203.686 221.052 203.285 220.855 202.935C220.658 202.585 220.39 202.297 220.075 202.099C219.76 201.9 219.407 201.796 219.049 201.796Z" fill="#3F3D56"/>
<path d="M158.132 253.189C162.338 253.189 165.748 249.196 165.748 244.271C165.748 239.345 162.338 235.353 158.132 235.353C153.926 235.353 150.516 239.345 150.516 244.271C150.516 249.196 153.926 253.189 158.132 253.189Z" fill="white"/>
<path d="M445.835 175.769C450.041 175.769 453.451 171.776 453.451 166.851C453.451 161.926 450.041 157.933 445.835 157.933C441.629 157.933 438.219 161.926 438.219 166.851C438.219 171.776 441.629 175.769 445.835 175.769Z" fill="white"/>
<path d="M733.892 296.205L713.547 272.686C712.556 271.532 711.381 270.618 710.089 269.997C708.796 269.376 707.412 269.059 706.015 269.066H705.943C704.536 269.071 703.143 269.402 701.845 270.041C700.548 270.681 699.371 271.615 698.384 272.79C693.835 278.181 691.248 285.427 691.166 293.004C691.085 300.582 693.515 307.902 697.947 313.425C698.161 313.697 698.384 313.959 698.608 314.22C699.845 315.661 701.211 316.941 702.682 318.039C706.704 321.082 711.394 322.692 716.183 322.674H716.335C719.621 322.661 722.873 321.885 725.902 320.391C728.931 318.897 731.677 316.714 733.981 313.969C735.977 311.598 737.089 308.396 737.072 305.065C737.056 301.735 735.912 298.549 733.892 296.205ZM732.712 312.494C728.935 316.95 723.961 319.745 718.63 320.408C713.298 321.071 707.934 319.562 703.442 316.135C702.157 315.139 700.957 314.001 699.859 312.735C695.475 307.665 692.991 300.764 692.952 293.55C692.913 286.336 695.324 279.399 699.653 274.265C700.476 273.284 701.458 272.503 702.54 271.97C703.623 271.436 704.786 271.16 705.961 271.158H706.015C707.178 271.153 708.331 271.417 709.407 271.934C710.483 272.451 711.462 273.211 712.287 274.171L732.632 297.701C734.316 299.651 735.27 302.304 735.285 305.078C735.3 307.852 734.375 310.519 732.712 312.494Z" fill="#3F3D56"/>
<path d="M667.139 219.015L646.794 195.485C644.792 193.159 642.083 191.857 639.262 191.866H639.2C637.79 191.872 636.396 192.206 635.097 192.847C633.798 193.488 632.62 194.424 631.632 195.6C627.871 200.073 625.433 205.838 624.674 212.051C623.915 218.264 624.876 224.598 627.415 230.126L627.424 230.136C628.471 232.397 629.772 234.483 631.292 236.34C631.462 236.57 631.659 236.8 631.855 237.031C636.527 242.461 642.847 245.501 649.43 245.484H649.591C652.878 245.468 656.13 244.69 659.159 243.194C662.188 241.698 664.933 239.514 667.237 236.769C668.227 235.596 669.009 234.206 669.539 232.679C670.07 231.151 670.338 229.517 670.329 227.868C670.32 226.219 670.033 224.589 669.486 223.07C668.939 221.551 668.141 220.173 667.139 219.015ZM665.96 235.304C663.821 237.852 661.273 239.878 658.462 241.266C655.651 242.654 652.633 243.377 649.582 243.392H649.43C644.849 243.39 640.37 241.801 636.557 238.827C632.745 235.852 629.768 231.623 628.003 226.673C626.237 221.723 625.761 216.272 626.634 211.006C627.507 205.739 629.69 200.893 632.91 197.076C634.575 195.104 636.841 193.986 639.21 193.969C641.579 193.951 643.857 195.035 645.544 196.981L665.888 220.5C667.571 222.454 668.524 225.11 668.538 227.885C668.551 230.66 667.624 233.328 665.96 235.304Z" fill="#3F3D56"/>
<path d="M735.192 303.599L712.763 277.659C711.292 275.962 709.306 275.018 707.241 275.033C705.176 275.048 703.201 276.021 701.748 277.74C699.931 279.889 698.493 282.437 697.518 285.238C696.542 288.039 696.047 291.037 696.062 294.062C696.076 297.086 696.6 300.078 697.603 302.866C698.605 305.653 700.067 308.182 701.905 310.308C703.743 312.433 705.921 314.114 708.314 315.253C710.707 316.392 713.268 316.968 715.851 316.948C718.434 316.927 720.989 316.311 723.368 315.134C725.748 313.957 727.906 312.242 729.719 310.087L735.192 303.599Z" fill="#C98D26"/>
<path d="M668.443 226.405L646.014 200.465C644.543 198.768 642.558 197.824 640.493 197.839C638.428 197.854 636.452 198.827 635 200.545C633.182 202.695 631.745 205.243 630.769 208.044C629.793 210.845 629.299 213.843 629.313 216.868C629.328 219.892 629.851 222.884 630.854 225.672C631.857 228.459 633.319 230.988 635.157 233.114C636.995 235.239 639.172 236.92 641.565 238.059C643.958 239.198 646.52 239.774 649.103 239.754C651.686 239.733 654.24 239.117 656.62 237.94C658.999 236.763 661.157 235.048 662.97 232.893L668.443 226.405Z" fill="#C98D26"/>
<path d="M710.545 319.755L710.009 321.408C707.489 320.289 705.047 319.166 702.682 318.039C660.795 298.025 640.799 274.6 627.424 230.136L627.415 230.126C626.78 228.033 626.164 225.892 625.565 223.702L626.977 223.168C627.449 225.275 628.139 227.305 629.032 229.216C629.765 231.653 630.518 234.028 631.292 236.34C643.864 273.868 662.404 295.316 697.947 313.425C699.734 314.336 701.565 315.239 703.442 316.135C705.62 317.797 708.021 319.021 710.545 319.755Z" fill="#3F3D56"/>
<path d="M646.422 243.579L645.166 245.069L691.571 298.737L692.828 297.248L646.422 243.579Z" fill="#3F3D56"/>
<path d="M253.54 199.11L253.564 164.729L236.304 166.535L242.395 188.219L220.284 227.467C218.901 227.83 217.639 228.657 216.65 229.846C215.662 231.035 214.99 232.535 214.717 234.163C214.445 235.791 214.582 237.477 215.113 239.016C215.645 240.554 216.547 241.878 217.709 242.826C218.872 243.775 220.246 244.306 221.662 244.357C223.078 244.407 224.477 243.973 225.686 243.109C226.896 242.245 227.865 240.987 228.475 239.489C229.084 237.992 229.309 236.319 229.121 234.674L253.54 199.11Z" fill="#E9C9C9"/>
</g>
<defs>
<clipPath id="clip0_85_38">
<rect width="799" height="469" fill="white"/>
</clipPath>
</defs>
</svg>
