<svg width="55" height="54" viewBox="0 0 55 54" fill="none" xmlns="http://www.w3.org/2000/svg">
<path d="M20.625 5.40002C20.9897 5.40002 21.3394 5.54226 21.5973 5.79543C21.8551 6.0486 22 6.39198 22 6.75002V12.15C22 12.5081 21.8551 12.8514 21.5973 13.1046C21.3394 13.3578 20.9897 13.5 20.625 13.5C20.2603 13.5 19.9106 13.3578 19.6527 13.1046C19.3949 12.8514 19.25 12.5081 19.25 12.15V6.75002C19.25 6.39198 19.3949 6.0486 19.6527 5.79543C19.9106 5.54226 20.2603 5.40002 20.625 5.40002ZM9.9275 9.74702C10.0552 9.6213 10.207 9.52156 10.374 9.4535C10.5411 9.38544 10.7201 9.35041 10.901 9.35041C11.0819 9.35041 11.2609 9.38544 11.428 9.4535C11.595 9.52156 11.7468 9.6213 11.8745 9.74702L15.763 13.5675C15.8943 13.6921 15.9991 13.841 16.0711 14.0057C16.1432 14.1704 16.1811 14.3476 16.1827 14.5268C16.1843 14.7061 16.1495 14.8839 16.0804 15.0498C16.0112 15.2157 15.9091 15.3664 15.78 15.4932C15.6509 15.6199 15.4974 15.7202 15.3284 15.788C15.1595 15.8559 14.9784 15.8901 14.7958 15.8885C14.6133 15.887 14.4328 15.8497 14.2651 15.779C14.0973 15.7082 13.9456 15.6054 13.8188 15.4764L9.93025 11.6586C9.67248 11.4055 9.52767 11.0621 9.52767 10.7042C9.52767 10.3462 9.67248 10.0029 9.93025 9.74972M31.3252 9.74972C31.4533 9.87513 31.5549 10.0241 31.6242 10.1881C31.6935 10.3521 31.7292 10.528 31.7292 10.7055C31.7292 10.8831 31.6935 11.0589 31.6242 11.2229C31.5549 11.3869 31.4533 11.5359 31.3252 11.6613L27.4285 15.4764C27.3017 15.6054 27.1499 15.7082 26.9822 15.779C26.8144 15.8497 26.634 15.887 26.4514 15.8885C26.2689 15.8901 26.0878 15.8559 25.9188 15.788C25.7498 15.7202 25.5963 15.6199 25.4672 15.4932C25.3381 15.3664 25.236 15.2157 25.1669 15.0498C25.0977 14.8839 25.0629 14.7061 25.0645 14.5268C25.0661 14.3476 25.104 14.1704 25.1761 14.0057C25.2482 13.841 25.3529 13.6921 25.4843 13.5675L29.3727 9.74972C29.6306 9.49664 29.9803 9.35446 30.3449 9.35446C30.7095 9.35446 31.0591 9.49664 31.317 9.74972M5.5 20.25C5.5 19.892 5.64487 19.5486 5.90273 19.2954C6.16059 19.0423 6.51033 18.9 6.875 18.9H12.375C12.7397 18.9 13.0894 19.0423 13.3473 19.2954C13.6051 19.5486 13.75 19.892 13.75 20.25C13.75 20.6081 13.6051 20.9514 13.3473 21.2046C13.0894 21.4578 12.7397 21.6 12.375 21.6H6.875C6.51033 21.6 6.16059 21.4578 5.90273 21.2046C5.64487 20.9514 5.5 20.6081 5.5 20.25ZM23.76 19.71C23.3587 19.3818 22.8704 19.1726 22.3525 19.1069C21.8345 19.0412 21.3081 19.1216 20.835 19.3389C20.3619 19.5561 19.9615 19.9012 19.6809 20.3336C19.4002 20.7661 19.2507 21.2681 19.25 21.7809V46.3536C19.25 48.8484 22.3988 50.0094 24.0708 48.1329L29.6423 41.8797C30.0298 41.4459 30.5073 41.0983 31.0427 40.8604C31.5782 40.6224 32.1592 40.4996 32.747 40.5H41.5773C44.1485 40.5 45.3145 37.341 43.3372 35.7264L23.76 19.71ZM22 46.359V21.7809L41.5773 37.8H32.747C31.7668 37.7999 30.7978 38.0056 29.9052 38.4033C29.0126 38.8009 28.2169 39.3814 27.5715 40.1058L22 46.359Z" fill="#393C8C"/>
</svg>
