<svg width="137" height="42" viewBox="0 0 137 42" fill="none" xmlns="http://www.w3.org/2000/svg">
<path d="M34.9089 2V0L30.9089 0V2L34.9089 2ZM30.9089 2V16H34.9089V2L30.9089 2Z" fill="#C98D26"/>
<path d="M2.4089 28L10.4089 23.5L14.4089 20.5L17.9089 17.5L20.4089 14.5L22.9089 11L25.4089 6.49999" stroke="#C98D26" stroke-width="4" stroke-linecap="round"/>
<path d="M24.1183 8.83129L31.2064 14.8637L34.4089 17.2755L36.9089 18.5L40.4089 19.5L43.9089 20.1946L45.9089 20.4701L48.0743 20.4701L53.5663 20.1946" stroke="#C98D26" stroke-width="4" stroke-linecap="round"/>
<path d="M36.6689 27.208C36.6689 28.136 36.3969 28.912 35.8529 29.536C35.3249 30.16 34.5809 30.608 33.6209 30.88C34.8209 31.168 35.8129 31.68 36.5969 32.416C37.3969 33.152 37.7969 34.112 37.7969 35.296C37.7969 36.784 37.1409 37.976 35.8289 38.872C34.5169 39.768 32.7489 40.216 30.5249 40.216C28.3009 40.216 26.7009 39.928 25.7249 39.352C24.7649 38.776 24.2849 37.88 24.2849 36.664L24.3089 25.144C24.3089 24.376 24.1569 23.8 23.8529 23.416C25.6609 22.776 27.6689 22.456 29.8769 22.456C32.1009 22.456 33.7889 22.896 34.9409 23.776C36.0929 24.656 36.6689 25.8 36.6689 27.208ZM30.2129 30.304C31.4289 30.304 32.3649 30.032 33.0209 29.488C33.6929 28.944 34.0289 28.224 34.0289 27.328C34.0289 26.416 33.6769 25.688 32.9729 25.144C32.2689 24.584 31.2849 24.304 30.0209 24.304C28.7729 24.304 27.7249 24.424 26.8769 24.664L26.8289 30.304H30.2129ZM26.8289 36.76C26.8289 37.864 28.0209 38.416 30.4049 38.416C31.9089 38.416 33.0689 38.136 33.8849 37.576C34.7169 37 35.1329 36.224 35.1329 35.248C35.1329 34.272 34.7169 33.496 33.8849 32.92C33.0689 32.344 31.9009 32.056 30.3809 32.056H26.8289V36.76ZM46.9807 32.44C47.6047 32.392 47.9167 32.032 47.9167 31.36C47.9167 30.688 47.7327 30.136 47.3647 29.704C47.0127 29.256 46.5087 29.032 45.8527 29.032C45.1967 29.032 44.5967 29.36 44.0527 30.016C43.5247 30.672 43.1967 31.6 43.0687 32.8L46.9807 32.44ZM42.9967 34.072C43.0127 35.528 43.3407 36.608 43.9807 37.312C44.6367 38 45.5567 38.344 46.7407 38.344C47.9407 38.344 48.9887 37.896 49.8847 37C50.1567 37.144 50.2927 37.392 50.2927 37.744C50.2927 38.336 49.8847 38.896 49.0687 39.424C48.2527 39.952 47.2927 40.216 46.1887 40.216C44.4607 40.216 43.0687 39.704 42.0127 38.68C40.9567 37.64 40.4287 36.168 40.4287 34.264C40.4287 32.36 41.0047 30.752 42.1567 29.44C43.3087 28.128 44.6767 27.472 46.2607 27.472C47.5087 27.472 48.5247 27.896 49.3087 28.744C50.0927 29.576 50.4847 30.528 50.4847 31.6C50.4847 32.384 50.2767 32.96 49.8607 33.328C49.4607 33.696 48.7887 33.888 47.8447 33.904L42.9967 34.072ZM72.5875 39.784C72.1555 40.056 71.6995 40.192 71.2195 40.192C70.7395 40.192 70.3635 40.048 70.0915 39.76C69.8355 39.472 69.6755 38.992 69.6115 38.32L68.7715 25.48L63.6835 39.064C63.5075 39.576 63.1555 39.832 62.6275 39.832C62.0995 39.832 61.7475 39.576 61.5715 39.064L56.5555 25.48L55.7155 38.248C55.6675 38.936 55.5315 39.44 55.3075 39.76C55.0835 40.064 54.7155 40.216 54.2035 40.216C53.6915 40.216 53.2275 40.008 52.8115 39.592C53.1315 39.32 53.3155 38.832 53.3635 38.128L54.3715 24.592C54.3715 24.496 54.3715 24.408 54.3715 24.328C54.3715 23.8 54.2435 23.384 53.9875 23.08C54.6755 22.664 55.3955 22.456 56.1475 22.456C56.8995 22.456 57.4835 22.664 57.8995 23.08C58.3155 23.496 58.6675 24.152 58.9555 25.048L62.8195 35.488L66.8035 25.096C67.1235 24.104 67.5235 23.416 68.0035 23.032C68.4995 22.648 69.0835 22.456 69.7555 22.456C70.4275 22.456 71.0515 22.6 71.6275 22.888C71.3715 23.24 71.2435 23.68 71.2435 24.208C71.2435 24.288 71.2435 24.376 71.2435 24.472L72.1795 38.08C72.2115 38.912 72.3475 39.48 72.5875 39.784ZM77.7946 22.096C78.2586 22.096 78.6426 22.24 78.9466 22.528C79.2666 22.8 79.4266 23.168 79.4266 23.632C79.4266 24.096 79.2266 24.52 78.8266 24.904C78.4266 25.272 77.9706 25.456 77.4586 25.456C76.9626 25.456 76.5626 25.312 76.2586 25.024C75.9546 24.736 75.8026 24.352 75.8026 23.872C75.8026 23.376 76.0186 22.96 76.4506 22.624C76.8826 22.272 77.3306 22.096 77.7946 22.096ZM78.9466 29.512V38.224C78.9466 38.8 79.1706 39.184 79.6186 39.376C79.2026 39.936 78.6906 40.216 78.0826 40.216C76.9946 40.216 76.4506 39.544 76.4506 38.2V29.488C76.4506 28.928 76.2266 28.536 75.7786 28.312C76.1946 27.752 76.7066 27.472 77.3146 27.472C78.4026 27.472 78.9466 28.152 78.9466 29.512ZM91.9628 29.944C91.9628 30.392 91.8268 30.744 91.5548 31C91.2828 31.24 90.9388 31.36 90.5228 31.36C90.1228 31.36 89.7868 31.264 89.5148 31.072C89.5628 30.912 89.5868 30.672 89.5868 30.352C89.5868 30.016 89.4508 29.72 89.1788 29.464C88.9228 29.208 88.5308 29.08 88.0028 29.08C87.1388 29.08 86.3628 29.52 85.6748 30.4C85.0028 31.28 84.6668 32.448 84.6668 33.904C84.6668 35.344 84.9948 36.432 85.6508 37.168C86.3228 37.904 87.1548 38.272 88.1468 38.272C89.4908 38.272 90.6028 37.832 91.4828 36.952C91.7228 37.08 91.8428 37.336 91.8428 37.72C91.8428 38.328 91.4268 38.896 90.5948 39.424C89.7788 39.952 88.8268 40.216 87.7388 40.216C86.1388 40.216 84.8108 39.696 83.7548 38.656C82.6988 37.616 82.1708 36.152 82.1708 34.264C82.1708 32.376 82.7708 30.776 83.9708 29.464C85.1708 28.136 86.6588 27.472 88.4348 27.472C89.4588 27.472 90.2988 27.712 90.9548 28.192C91.6268 28.656 91.9628 29.24 91.9628 29.944ZM96.9068 36.88C96.9068 37.904 97.4668 38.416 98.5868 38.416C99.7068 38.416 100.627 37.944 101.347 37V34.288C99.8268 34.368 98.7068 34.648 97.9868 35.128C97.2668 35.592 96.9068 36.176 96.9068 36.88ZM103.867 31.48V37.576C103.867 38.472 104.267 39 105.067 39.16C104.667 39.864 104.051 40.216 103.219 40.216C102.147 40.216 101.531 39.616 101.371 38.416C100.443 39.616 99.2028 40.216 97.6508 40.216C96.6268 40.216 95.7948 39.944 95.1548 39.4C94.5148 38.856 94.1948 38.104 94.1948 37.144C94.1948 35.96 94.8028 35.008 96.0188 34.288C97.2348 33.552 99.0108 33.152 101.347 33.088V31.408C101.347 30.544 101.187 29.912 100.867 29.512C100.563 29.096 100.083 28.888 99.4268 28.888C98.7868 28.888 98.2988 29.032 97.9628 29.32C97.6268 29.592 97.4588 29.928 97.4588 30.328C97.4588 30.712 97.5708 31.024 97.7948 31.264C97.3948 31.616 96.9308 31.792 96.4028 31.792C95.8748 31.792 95.4588 31.664 95.1548 31.408C94.8668 31.136 94.7228 30.768 94.7228 30.304C94.7228 29.504 95.1868 28.832 96.1148 28.288C97.0428 27.744 98.1628 27.472 99.4748 27.472C100.803 27.472 101.867 27.816 102.667 28.504C103.467 29.192 103.867 30.184 103.867 31.48ZM116.708 30.016C116.708 30.416 116.572 30.736 116.3 30.976C116.028 31.2 115.676 31.312 115.244 31.312C114.828 31.312 114.452 31.192 114.116 30.952C114.196 30.792 114.236 30.552 114.236 30.232C114.236 29.912 114.068 29.624 113.732 29.368C113.396 29.112 112.9 28.984 112.244 28.984C111.604 28.984 111.092 29.128 110.708 29.416C110.324 29.704 110.132 30.064 110.132 30.496C110.132 30.912 110.364 31.296 110.828 31.648C111.308 31.984 111.884 32.304 112.556 32.608C113.228 32.896 113.9 33.208 114.572 33.544C115.26 33.88 115.836 34.312 116.3 34.84C116.78 35.368 117.02 35.952 117.02 36.592C117.02 37.616 116.54 38.48 115.58 39.184C114.636 39.872 113.444 40.216 112.004 40.216C110.58 40.216 109.412 39.952 108.5 39.424C107.588 38.88 107.124 38.192 107.108 37.36C107.108 36.832 107.268 36.424 107.588 36.136C107.908 35.832 108.3 35.68 108.764 35.68C109.244 35.68 109.636 35.856 109.94 36.208C109.7 36.496 109.58 36.848 109.58 37.264C109.58 37.68 109.78 38.024 110.18 38.296C110.596 38.568 111.18 38.704 111.932 38.704C112.7 38.704 113.316 38.544 113.78 38.224C114.244 37.904 114.476 37.504 114.476 37.024C114.476 36.544 114.236 36.128 113.756 35.776C113.292 35.408 112.724 35.08 112.052 34.792C111.396 34.504 110.732 34.2 110.06 33.88C109.388 33.56 108.812 33.152 108.332 32.656C107.868 32.16 107.636 31.6 107.636 30.976C107.636 30 108.076 29.176 108.956 28.504C109.852 27.816 110.924 27.472 112.172 27.472C113.42 27.472 114.484 27.712 115.364 28.192C116.26 28.656 116.708 29.264 116.708 30.016ZM122.055 36.88C122.055 37.904 122.615 38.416 123.735 38.416C124.855 38.416 125.775 37.944 126.495 37V34.288C124.975 34.368 123.855 34.648 123.135 35.128C122.415 35.592 122.055 36.176 122.055 36.88ZM129.015 31.48V37.576C129.015 38.472 129.415 39 130.215 39.16C129.815 39.864 129.199 40.216 128.367 40.216C127.295 40.216 126.679 39.616 126.519 38.416C125.591 39.616 124.351 40.216 122.799 40.216C121.775 40.216 120.943 39.944 120.303 39.4C119.663 38.856 119.343 38.104 119.343 37.144C119.343 35.96 119.951 35.008 121.167 34.288C122.383 33.552 124.159 33.152 126.495 33.088V31.408C126.495 30.544 126.335 29.912 126.015 29.512C125.711 29.096 125.231 28.888 124.575 28.888C123.935 28.888 123.447 29.032 123.111 29.32C122.775 29.592 122.607 29.928 122.607 30.328C122.607 30.712 122.719 31.024 122.943 31.264C122.543 31.616 122.079 31.792 121.551 31.792C121.023 31.792 120.607 31.664 120.303 31.408C120.015 31.136 119.871 30.768 119.871 30.304C119.871 29.504 120.335 28.832 121.263 28.288C122.191 27.744 123.311 27.472 124.623 27.472C125.951 27.472 127.015 27.816 127.815 28.504C128.615 29.192 129.015 30.184 129.015 31.48Z" fill="white"/>
</svg>
