<svg width="42" height="56" viewBox="0 0 42 56" fill="none" xmlns="http://www.w3.org/2000/svg">
<path fill-rule="evenodd" clip-rule="evenodd" d="M8.98874 9.64058C11.9331 7.97239 16.7635 6 22.0499 6C27.2259 6 31.9292 7.89043 34.8579 9.53641L35.0235 9.62947C35.9066 10.1351 36.6192 10.6129 37.1208 11.0004L32.6887 18.501C42.9063 30.5937 50.7986 56 22.0499 56C-6.69882 56 0.981185 31.0549 11.2876 18.501L6.88427 11.0004C7.22382 10.7435 7.65455 10.4448 8.16807 10.1281C8.42243 9.96978 8.69599 9.80587 8.98874 9.64058ZM29.8403 18.4024L33.3881 12.3978C30.0887 12.6728 26.1629 13.5701 22.3835 14.8368C19.6839 15.7397 16.6843 15.6022 13.9068 15.0091C13.2068 14.8589 12.5117 14.68 11.8227 14.4729L14.1263 18.3996C19.0636 20.4345 24.9019 20.4345 29.8403 18.4024ZM12.7406 20.7651C18.5177 23.3487 25.461 23.3487 31.2381 20.7623C33.6496 23.7052 35.6668 27.0495 37.2228 30.684C38.8449 34.5149 39.728 38.3444 39.584 41.6446C39.4448 44.8296 38.3626 47.5507 35.891 49.5731C33.315 51.6802 28.9824 53.222 22.0487 53.222C15.1078 53.222 10.7549 51.7066 8.15487 49.6231C5.66526 47.6271 4.57223 44.9421 4.41745 41.8002C4.25548 38.536 5.11934 34.726 6.73549 30.8687C8.27725 27.1907 10.4285 23.6501 12.7406 20.7651ZM11.3608 11.4393C12.3206 11.7699 13.3237 12.0574 14.3411 12.2755C16.9207 12.8256 19.5075 12.9061 21.7152 12.1658C24.2878 11.2981 26.9044 10.6158 29.5499 10.1226C27.3423 9.35306 24.7603 8.77801 22.0487 8.77801C17.9154 8.77801 14.0604 10.1128 11.3608 11.4393Z" fill="#393C8C"/>
<path d="M14.616 44.84V31.592C14.616 30.888 14.376 30.432 13.896 30.224C14.392 29.6 15.096 29.288 16.008 29.288C17.208 29.288 18.208 29.928 19.008 31.208L26.232 42.968V31.592C26.232 30.888 25.992 30.432 25.512 30.224C25.976 29.6 26.592 29.288 27.36 29.288C28.688 29.288 29.352 30.08 29.352 31.664V44.912C29.352 45.632 29.512 46.176 29.832 46.544C29.416 47.008 28.816 47.24 28.032 47.24C27.264 47.24 26.576 47.008 25.968 46.544C25.376 46.064 24.736 45.272 24.048 44.168L17.736 33.968V44.912C17.736 45.6 17.968 46.064 18.432 46.304C17.936 46.928 17.328 47.24 16.608 47.24C15.28 47.24 14.616 46.44 14.616 44.84Z" fill="#393C8C"/>
<line x1="12" y1="39" x2="32.3961" y2="39" stroke="#393C8C" stroke-width="2"/>
</svg>
