<svg width="50" height="46" viewBox="0 0 50 46" fill="none" xmlns="http://www.w3.org/2000/svg">
<path d="M25 0.843323L45.8334 7.55166V23C45.8334 30.9101 40.5563 36.4397 35.6334 39.8724C32.6631 41.9252 29.4043 43.5983 25.9459 44.8462C25.8856 44.8676 25.8252 44.8887 25.7646 44.9094L25.7125 44.9267L25.6979 44.9305L25.6917 44.9324C25.6896 44.9324 25.6875 44.9324 25 43.125L24.3104 44.9343L24.3021 44.9305L24.2875 44.9267L24.2354 44.9075C23.9572 44.8129 23.6807 44.7139 23.4063 44.6104C20.1865 43.3889 17.1483 41.7962 14.3646 39.8705C9.44794 36.4416 4.16669 30.912 4.16669 23.0019V7.55166L25 0.843323ZM25 43.125L24.3104 44.9343L25 45.1567L25.6896 44.9343L25 43.125ZM25 41.0703L25.0188 41.0627C27.9018 39.9673 30.6227 38.5408 33.1167 36.8172C37.5709 33.7142 41.6667 29.1774 41.6667 23V10.2733L25 4.90666L8.33335 10.2733V23C8.33335 29.1774 12.4292 33.7103 16.8834 36.8192C19.3827 38.5461 22.11 39.9746 25 41.0703ZM37.65 15.9907L22.9188 29.5435L14.0792 21.413L17.0271 18.7009L22.9167 24.1232L34.7021 13.2806L37.65 15.9907Z" fill="#393C8C"/>
</svg>
